<?xml version="1.0" encoding="utf-8"?>
<svg version="1.1" xmlns:xlink="http://www.w3.org/1999/xlink" width="235px" height="65px" xmlns="http://www.w3.org/2000/svg">
  <g transform="matrix(1 0 0 1 -635 -69 )">
    <path d="M 645.40756302521 116.481818181818  C 645.40756302521 116.481818181818  645.40756302521 69.5  645.40756302521 69.5  C 645.40756302521 69.5  869.5 69.5  869.5 69.5  C 869.5 69.5  869.5 116.481818181818  869.5 116.481818181818  C 869.5 116.481818181818  802.446822974806 116.481818181818  802.446822974806 116.481818181818  C 802.446822974806 116.481818181818  640.55258662588 133.002806652113  640.55258662588 133.002806652113  C 640.55258662588 133.002806652113  693.188689651827 116.481818181818  693.188689651827 116.481818181818  C 693.188689651827 116.481818181818  645.40756302521 116.481818181818  645.40756302521 116.481818181818  Z " fill-rule="nonzero" fill="#ffffff" stroke="none" />
    <path d="M 644.90756302521 116.981818181818  C 644.90756302521 116.981818181818  644.90756302521 69  644.90756302521 69  C 644.90756302521 69  870 69  870 69  C 870 69  870 116.981818181818  870 116.981818181818  C 870 116.981818181818  802.472268907563 116.981818181818  802.472268907563 116.981818181818  C 802.472268907563 116.981818181818  635.705882352941 134  635.705882352941 134  C 635.705882352941 134  689.926050420168 116.981818181818  689.926050420168 116.981818181818  C 689.926050420168 116.981818181818  644.90756302521 116.981818181818  644.90756302521 116.981818181818  Z M 645.90756302521 115.981818181818  C 645.90756302521 115.981818181818  696.451328883487 115.981818181818  696.451328883487 115.981818181818  C 696.451328883487 115.981818181818  645.399290898818 132.005613304227  645.399290898818 132.005613304227  C 645.399290898818 132.005613304227  802.421377042048 115.981818181818  802.421377042048 115.981818181818  C 802.421377042048 115.981818181818  869 115.981818181818  869 115.981818181818  C 869 115.981818181818  869 70  869 70  C 869 70  645.90756302521 70  645.90756302521 70  C 645.90756302521 70  645.90756302521 115.981818181818  645.90756302521 115.981818181818  Z " fill-rule="nonzero" fill="#797979" stroke="none" />
  </g>
</svg>